<?xml version="1.0" encoding="iso-8859-1"?>
<!-- Uploaded to: SVG Repo, www.svgrepo.com, Generator: SVG Repo Mixer Tools -->
<svg height="800px" width="800px" version="1.1" id="Layer_1" xmlns="http://www.w3.org/2000/svg" xmlns:xlink="http://www.w3.org/1999/xlink" 
	 viewBox="0 0 512 512" xml:space="preserve">
<circle style="fill:#FFD15D;" cx="256" cy="256" r="256"/>
<path style="fill:#F9B54C;" d="M293.397,509.273c97.358-14.252,176.904-83.297,206.341-174.825l-84.83-84.83l-92.824,15.001
	l-215.711,57.63L293.397,509.273z"/>
<path style="fill:#FC6F58;" d="M426.667,286.168H113.778c-5.236,0-9.481,4.246-9.481,9.481v20.687c0,5.236,4.246,9.481,9.481,9.481
	h85.333c1.105,0,2.201-0.193,3.241-0.571l25.204-9.164l25.203,9.164c1.04,0.378,2.136,0.571,3.241,0.571h170.667
	c5.236,0,9.481-4.246,9.481-9.481V295.65C436.148,290.414,431.902,286.168,426.667,286.168z"/>
<path style="fill:#F1543F;" d="M426.667,286.168H256.288v39.65h170.379c5.236,0,9.481-4.246,9.481-9.481V295.65
	C436.148,290.414,431.902,286.168,426.667,286.168z"/>
<path style="fill:#68533E;" d="M436.126,293.285c-1.264-18.622-16.384-56.284-64.555-65.557
	c-51.719-9.957-138.73-55.511-139.6-55.972c-2.986-1.567-6.58-1.434-9.444,0.353c-48.178,30.144-103.579,0.064-104.117-0.234
	c-2.934-1.643-6.522-1.608-9.426,0.093c-2.905,1.701-4.687,4.815-4.687,8.18v113.778c0,5.236,4.246,9.481,9.481,9.481h312.889
	c2.625,0,5.136-1.09,6.928-3.008C435.388,298.48,436.305,295.903,436.126,293.285z"/>
<path style="fill:#57442F;" d="M436.126,293.285c-1.264-18.622-16.384-56.284-64.555-65.557
	c-34.778-6.696-85.511-29.487-115.283-43.839v119.518h170.379c2.625,0,5.136-1.09,6.928-3.008
	C435.388,298.48,436.305,295.903,436.126,293.285z"/>
<g>
	<circle style="fill:#B97850;" cx="281.859" cy="218.074" r="6.896"/>
	<circle style="fill:#B97850;" cx="319.785" cy="230.141" r="6.896"/>
	<circle style="fill:#B97850;" cx="243.933" cy="199.111" r="6.896"/>
</g>
</svg>